<?xml version="1.0" encoding="utf-8"?>
<!-- Generator: Adobe Illustrator 25.2.1, SVG Export Plug-In . SVG Version: 6.00 Build 0)  -->
<svg xmlns="http://www.w3.org/2000/svg" viewBox="0 0 22 22" style="enable-background:new 0 0 22 22;"
     xml:space="preserve">
<style type="text/css">
	.st0{fill:#959595;}
</style>
    <path class="st0" d="M20.6,22l-4.1-4.1c-1.8,1.5-4,2.3-6.4,2.3c-2.7,0-5.2-1-7.1-3c-1.9-1.9-3-4.4-3-7.1S1,4.9,3,3s4.4-3,7.1-3
	s5.2,1,7.1,3c1.9,1.9,3,4.4,3,7.1c0,2.4-0.8,4.6-2.3,6.4l4.1,4.1L20.6,22z M10.1,2C7.9,2,5.9,2.9,4.4,4.4S2,7.9,2,10.1
	c0,2.2,0.8,4.2,2.4,5.7s3.5,2.4,5.7,2.4s4.2-0.8,5.7-2.4s2.4-3.5,2.4-5.7s-0.8-4.2-2.4-5.7S12.2,2,10.1,2z"/>
</svg>
