<svg width="17" height="16" viewBox="0 0 17 16" fill="none" xmlns="http://www.w3.org/2000/svg">
<path d="M16.0833 5.63406L11.1008 4.90408L8.8735 0.352135C8.81267 0.227506 8.71259 0.126615 8.58896 0.0652895C8.2789 -0.0890138 7.90212 0.0395723 7.74709 0.352135L5.51978 4.90408L0.537272 5.63406C0.399904 5.65384 0.274311 5.71912 0.178154 5.81803C0.0619057 5.93848 -0.00215256 6.10053 5.52333e-05 6.26856C0.00226303 6.4366 0.0705563 6.59688 0.189929 6.71418L3.79484 10.2572L2.94316 15.2602C2.92319 15.3766 2.93596 15.4963 2.98004 15.6057C3.02411 15.7151 3.09772 15.8099 3.19252 15.8793C3.28732 15.9488 3.39951 15.99 3.51637 15.9984C3.63324 16.0068 3.7501 15.982 3.85371 15.9269L8.3103 13.5648L12.7669 15.9269C12.8886 15.9922 13.0298 16.0139 13.1653 15.9902C13.5067 15.9308 13.7363 15.6044 13.6774 15.2602L12.8258 10.2572L16.4307 6.71418C16.5288 6.61724 16.5935 6.49064 16.6132 6.35216C16.6662 6.00597 16.4267 5.68549 16.0833 5.63406ZM11.3088 9.7587L12.0173 13.919L8.3103 11.9565L4.60334 13.9209L5.31177 9.76068L2.31323 6.81309L6.4578 6.20577L8.3103 2.42138L10.1628 6.20577L14.3074 6.81309L11.3088 9.7587Z" fill="#E9456A"/>
</svg>
